<svg width="640" height="640" xmlns="http://www.w3.org/2000/svg" xml:space="preserve">

 <g>
  <title>Layer 1</title>
  <path id="svg_1" d="m182.28156,165.93502c-0.81,-0.81 -1.761,-1.387 -2.772,-1.749c2.995,-4.673 4.789,-10.182 4.947,-16.095l77.515,41.739c-3.591,5.549 -5.84,12.06 -6.254,19.088l-1.692,28.762l-71.744,-71.745l0,0l0,0l0,0l0,0l0,0l0,0l0,0l0,0zm-3.682,299.014c-4.057,-5.667 -9.94,-9.936 -16.786,-11.94l84.517,-84.518l-0.614,10.432c-0.715,12.152 1.444,23.959 6.178,34.718l-73.295,51.308l0,0l0,0l0,0l0,0l0,0l0,0l0,0zm190.497,-53.308l-96.238,0q-13.153,-15.062 -12.166,-31.838l10,-170.003c0.464,-7.892 4.651,-14.736 10.785,-18.875l79,0c6.134,4.139 10.32,10.983 10.785,18.875l10,170.003q0.987,16.776 -12.166,31.838l0,0l0,0l0,0l0,0l0,0l0,0zm111.045,41.368c-6.846,2.004 -12.729,6.273 -16.786,11.94l-73.297,-51.308c4.734,-10.759 6.893,-22.566 6.178,-34.718l-0.614,-10.432l84.519,84.518l0,0l0,0l0,0l0,0l0,0zm-92.214,-215.328l-1.692,-28.762c-0.414,-7.028 -2.662,-13.54 -6.253,-19.088l77.516,-41.739c0.158,5.913 1.952,11.422 4.947,16.095c-1.011,0.362 -1.962,0.939 -2.772,1.749l-71.746,71.745l0,0l0,0l0,0l0,0zm101.05,-106.942c9.098,0 16.5,7.401 16.5,16.5c0,9.098 -7.402,16.5 -16.5,16.5c-9.098,0 -16.5,-7.402 -16.5,-16.5c0,-9.099 7.402,-16.5 16.5,-16.5l0,0l0,0l0,0zm-335.999,0c9.098,0 16.5,7.401 16.5,16.5c0,9.098 -7.402,16.5 -16.5,16.5c-9.098,0 -16.5,-7.402 -16.5,-16.5c0,-9.099 7.402,-16.5 16.5,-16.5l0,0l0,0zm0,369c-9.098,0 -16.5,-7.402 -16.5,-16.5c0,-9.099 7.402,-16.5 16.5,-16.5c9.098,0 16.5,7.401 16.5,16.5c0,9.098 -7.402,16.5 -16.5,16.5l0,0zm-16.325,-325.569c4.764,2.898 10.353,4.569 16.325,4.569c6.236,0 12.05,-1.83 16.947,-4.969c0.362,1.011 0.94,1.962 1.749,2.771l79.999,80c0.369,0.369 0.767,0.691 1.186,0.967l-5.316,90.368c-1.418,0.274 -2.772,0.961 -3.87,2.059l-103.999,104c-0.389,0.389 -0.723,0.812 -1.008,1.257c-0.684,0.351 -1.359,0.718 -2.013,1.116q-7.707,5.842 -10.606,10.606c-2.899,4.764 -4.569,10.353 -4.569,16.325c0,17.369 14.131,31.5 31.5,31.5c5.972,0 11.561,-1.671 16.325,-4.569c4.764,-2.898 7.706,-5.842 10.605,-10.606c2.899,-4.764 4.57,-10.353 4.57,-16.325c0,-1.328 -0.092,-2.634 -0.252,-3.919l75.102,-52.572c2.053,2.897 121.245,2.898 123.298,0l75.103,52.572c-0.16,1.285 -0.252,2.591 -0.252,3.919c0,5.972 1.671,11.561 4.569,16.325c2.898,4.764 5.842,7.708 10.606,10.606c4.764,2.898 10.353,4.569 16.325,4.569c17.369,0 31.5,-14.131 31.5,-31.5c0,-5.972 -1.671,-11.561 -4.569,-16.325c-2.898,-4.764 -11.935,-11.371 -12.619,-11.722c-0.286,-0.445 -0.619,-0.868 -1.008,-1.257l-104,-104c-1.098,-1.098 -2.452,-1.785 -3.87,-2.059l-5.316,-90.368c0.419,-0.276 0.817,-0.598 1.186,-0.967l80,-80c0.81,-0.81 1.387,-1.761 1.749,-2.771c4.897,3.139 10.71,4.969 16.947,4.969c5.972,0 11.561,-1.671 16.325,-4.569c4.764,-2.898 7.708,-5.842 10.606,-10.606c2.898,-4.764 4.569,-10.353 4.569,-16.325c0,-17.368 -14.131,-31.499 -31.5,-31.499c-5.972,0 -11.561,1.67 -16.325,4.568l-12.106,9.106l-91.45,49.242c-6.363,-4.364 -14.047,-6.917 -22.292,-6.917l-51.654,0c-8.245,0 -15.929,2.553 -22.292,6.917l-91.449,-49.242l-12.106,-9.106c-4.764,-2.898 -10.353,-4.568 -16.325,-4.568c-17.369,0 -31.5,14.131 -31.5,31.499c0,5.972 1.671,11.561 4.569,16.324c2.898,4.763 5.842,7.709 10.606,10.607l0,0l0,0l0,0l0,0l0,0l0,0l0,0l0,0zm352.324,325.569c-9.098,0 -16.5,-7.402 -16.5,-16.5c0,-9.099 7.402,-16.5 16.5,-16.5c9.098,0 16.5,7.401 16.5,16.5c0,9.098 -7.402,16.5 -16.5,16.5z" fill-rule="evenodd"/>
  <g id="svg_3" class="propeller-group">
   <path id="svg_4" d="m505.89456,456.73802l2.429,-2.43q1.503,-9.224 2.469,-15.945c0.965,-6.72 2.902,-12.308 8.27,-17.111q59.131,-41.77 63.465,-44.425c4.333,-2.656 10.149,-4.56 13.296,-0.569c3.147,3.992 1.989,7.73 -2.073,11.792l-78.272,78.272l-9.584,-9.584zm-33.834,53.002l-2.43,2.43q-1.502,9.224 -2.468,15.944c-0.965,6.721 -2.902,12.308 -8.27,17.111q-59.131,41.771 -63.465,44.426c-4.333,2.655 -10.149,4.56 -13.296,0.568c-3.147,-3.991 -1.989,-7.729 2.073,-11.791l78.272,-78.273l9.584,9.585z" class="propeller propeller--cw"/>
   <path id="svg_5" d="m505.89456,173.74102l2.429,2.43q1.503,9.223 2.469,15.944c0.965,6.721 2.902,12.308 8.27,17.111q59.131,41.77 63.465,44.426c4.333,2.655 10.149,4.56 13.296,0.568c3.147,-3.992 1.989,-7.729 -2.073,-11.792l-78.272,-78.272l-9.584,9.585zm-33.834,-53.003l-2.43,-2.43q-1.502,-9.223 -2.468,-15.944c-0.965,-6.721 -2.902,-12.308 -8.27,-17.111q-59.131,-41.77 -63.465,-44.426c-4.333,-2.655 -10.149,-4.56 -13.296,-0.568c-3.147,3.991 -1.989,7.729 2.073,11.791l78.272,78.273l9.584,-9.585z" class="propeller propeller--ccw"/>
   <path id="svg_6" d="m169.89456,509.74002l2.43,2.43q1.503,9.224 2.468,15.944c0.966,6.721 2.902,12.308 8.27,17.111q59.132,41.771 63.465,44.426c4.334,2.655 10.149,4.56 13.296,0.568c3.147,-3.991 1.99,-7.729 -2.073,-11.791l-78.271,-78.273l-9.585,9.585zm-33.833,-53.002l-2.43,-2.43q-1.503,-9.224 -2.468,-15.945c-0.966,-6.72 -2.902,-12.308 -8.27,-17.111q-59.131,-41.77 -63.465,-44.425c-4.334,-2.656 -10.149,-4.56 -13.296,-0.569c-3.147,3.992 -1.99,7.73 2.073,11.792l78.272,78.272l9.584,-9.584z" class="propeller propeller--ccw"/>
   <path id="svg_7" d="m169.89456,120.73802l2.43,-2.43q1.503,-9.223 2.468,-15.944c0.966,-6.721 2.902,-12.308 8.27,-17.111q59.132,-41.77 63.465,-44.426c4.334,-2.655 10.149,-4.56 13.296,-0.568c3.147,3.991 1.99,7.729 -2.073,11.792l-78.272,78.272l-9.584,-9.585zm-33.833,53.003l-2.43,2.43q-1.503,9.223 -2.468,15.944c-0.966,6.721 -2.902,12.308 -8.27,17.111q-59.131,41.77 -63.465,44.426c-4.334,2.655 -10.149,4.559 -13.296,0.568c-3.147,-3.992 -1.99,-7.729 2.073,-11.792l78.272,-78.272l9.584,9.585z" class="propeller propeller--cw"/>
  </g>
  <text font-weight="bold" transform="matrix(1.13617 0 0 1.5179 -32.0397 -156.51)" stroke="null" xml:space="preserve" text-anchor="start" font-family="'Arial', sans-serif"; font-size="22" stroke-width="0" fill="#000000" id="svg_9" y="354.87845" x="267.77028">LATUNY</text>
 </g>
</svg>